<svg width="16" height="16" fill="none" xmlns:xlink="http://www.w3.org/1999/xlink" xmlns="http://www.w3.org/2000/svg"><defs><linearGradient id="prefix__a"><stop offset="0" stop-color="#ff5f5f"/><stop offset=".5" stop-color="#e1da5b"/><stop offset="1" stop-color="#5fff97"/></linearGradient><linearGradient xlink:href="#prefix__a" id="prefix__b" x1="0" y1="1" x2="0" y2="15" gradientUnits="userSpaceOnUse"/></defs><path d="M13.936 11.896v2.554a.228.228 0 01-.389.161l-3.03-3.03a.228.228 0 01.02-.34 4.55 4.55 0 00.376-.33 4.564 4.564 0 00.446-.53c2.009-2.802-.011-6.96-3.591-7.164-2.563-.172-4.721 1.986-4.55 4.549.19 3.317 3.776 5.298 6.53 3.969.151-.073.324.04.324.207v2.615a.228.228 0 01-.17.222c-1.566.4-3.27.262-4.74-.447C.805 12.334-.472 6.397 2.974 2.974 6.397-.472 12.332.804 14.332 5.162c1.018 2.11.857 4.705-.379 6.675a.112.112 0 00-.017.06z" fill="url(#prefix__b)"/></svg>